<mxfile host="app.diagrams.net" modified="2023-05-28T04:54:13.894Z" agent="Mozilla/5.0 (Windows NT 10.0; Win64; x64) AppleWebKit/537.36 (KHTML, like Gecko) Chrome/113.0.0.0 Safari/537.36" etag="mohKTpWRdXKE-aSmdN7M" version="21.3.4" type="google">
  <diagram name="PÃ¡gina-1" id="vc0yApb0CMvirgfghkCc">
    <mxGraphModel grid="1" page="1" gridSize="10" guides="1" tooltips="1" connect="1" arrows="1" fold="1" pageScale="1" pageWidth="827" pageHeight="1169" math="0" shadow="0">
      <root>
        <mxCell id="0" />
        <mxCell id="1" parent="0" />
        <mxCell id="pA3cC1FDBmTtkMS_HFhs-1" value="co" style="shape=folder;fontStyle=1;tabWidth=110;tabHeight=30;tabPosition=left;html=1;boundedLbl=1;labelInHeader=1;container=1;collapsible=0;whiteSpace=wrap;" vertex="1" parent="1">
          <mxGeometry x="-950" y="-60" width="1690" height="1470" as="geometry" />
        </mxCell>
        <mxCell id="pA3cC1FDBmTtkMS_HFhs-2" value="" style="html=1;strokeColor=none;resizeWidth=1;resizeHeight=1;fillColor=none;part=1;connectable=0;allowArrows=0;deletable=0;whiteSpace=wrap;" vertex="1" parent="pA3cC1FDBmTtkMS_HFhs-1">
          <mxGeometry width="1689.9999999999993" height="1029" relative="1" as="geometry">
            <mxPoint y="30" as="offset" />
          </mxGeometry>
        </mxCell>
        <mxCell id="pA3cC1FDBmTtkMS_HFhs-3" value="apipet" style="shape=folder;fontStyle=1;tabWidth=110;tabHeight=30;tabPosition=left;html=1;boundedLbl=1;labelInHeader=1;container=1;collapsible=0;whiteSpace=wrap;" vertex="1" parent="pA3cC1FDBmTtkMS_HFhs-1">
          <mxGeometry x="23.63532846715329" y="67.43625000000002" width="1629.3573722627739" height="1356.6262500000003" as="geometry" />
        </mxCell>
        <mxCell id="pA3cC1FDBmTtkMS_HFhs-4" value="" style="html=1;strokeColor=none;resizeWidth=1;resizeHeight=1;fillColor=none;part=1;connectable=0;allowArrows=0;deletable=0;whiteSpace=wrap;" vertex="1" parent="pA3cC1FDBmTtkMS_HFhs-3">
          <mxGeometry width="1629.3573722627748" height="949.6383749999997" relative="1" as="geometry">
            <mxPoint y="30" as="offset" />
          </mxGeometry>
        </mxCell>
        <mxCell id="CnLqmu6Y1ZzkHEZmKvZY-15" style="edgeStyle=orthogonalEdgeStyle;rounded=0;orthogonalLoop=1;jettySize=auto;html=1;exitX=0.75;exitY=1;exitDx=0;exitDy=0;exitPerimeter=0;entryX=0;entryY=0;entryDx=239.77000000000004;entryDy=72.345;entryPerimeter=0;dashed=1;endArrow=open;endFill=0;" edge="1" parent="pA3cC1FDBmTtkMS_HFhs-3" source="pA3cC1FDBmTtkMS_HFhs-7" target="pA3cC1FDBmTtkMS_HFhs-56">
          <mxGeometry relative="1" as="geometry" />
        </mxCell>
        <mxCell id="CnLqmu6Y1ZzkHEZmKvZY-23" style="edgeStyle=orthogonalEdgeStyle;rounded=0;orthogonalLoop=1;jettySize=auto;html=1;exitX=0;exitY=0;exitDx=55;exitDy=0;exitPerimeter=0;entryX=0;entryY=0;entryDx=519.59;entryDy=119.775;entryPerimeter=0;dashed=1;endArrow=open;endFill=0;" edge="1" parent="pA3cC1FDBmTtkMS_HFhs-3" source="pA3cC1FDBmTtkMS_HFhs-7" target="Lod6vtD8BS9e7FjF0TmM-1">
          <mxGeometry relative="1" as="geometry" />
        </mxCell>
        <mxCell id="pA3cC1FDBmTtkMS_HFhs-7" value="repository" style="shape=folder;fontStyle=1;tabWidth=110;tabHeight=30;tabPosition=left;html=1;boundedLbl=1;labelInHeader=1;container=1;collapsible=0;whiteSpace=wrap;" vertex="1" parent="pA3cC1FDBmTtkMS_HFhs-3">
          <mxGeometry x="1289.2202724191868" y="535.5654166666667" width="245.67912408759125" height="251.49250000000004" as="geometry" />
        </mxCell>
        <mxCell id="pA3cC1FDBmTtkMS_HFhs-8" value="" style="html=1;strokeColor=none;resizeWidth=1;resizeHeight=1;fillColor=none;part=1;connectable=0;allowArrows=0;deletable=0;whiteSpace=wrap;" vertex="1" parent="pA3cC1FDBmTtkMS_HFhs-7">
          <mxGeometry width="245.67912408759128" height="176.04475000000002" relative="1" as="geometry">
            <mxPoint y="30" as="offset" />
          </mxGeometry>
        </mxCell>
        <mxCell id="CnLqmu6Y1ZzkHEZmKvZY-21" style="edgeStyle=orthogonalEdgeStyle;rounded=0;orthogonalLoop=1;jettySize=auto;html=1;exitX=0;exitY=0;exitDx=424.81324404761904;exitDy=30;exitPerimeter=0;entryX=0.43;entryY=0.998;entryDx=0;entryDy=0;entryPerimeter=0;dashed=1;endArrow=open;endFill=0;" edge="1" parent="pA3cC1FDBmTtkMS_HFhs-3" source="pA3cC1FDBmTtkMS_HFhs-9" target="Lod6vtD8BS9e7FjF0TmM-1">
          <mxGeometry relative="1" as="geometry" />
        </mxCell>
        <mxCell id="pA3cC1FDBmTtkMS_HFhs-9" value="service" style="shape=folder;fontStyle=1;tabWidth=110;tabHeight=30;tabPosition=left;html=1;boundedLbl=1;labelInHeader=1;container=1;collapsible=0;whiteSpace=wrap;" vertex="1" parent="pA3cC1FDBmTtkMS_HFhs-3">
          <mxGeometry x="457.45684523809524" y="457.56666666666666" width="739.6264880952381" height="639.1" as="geometry" />
        </mxCell>
        <mxCell id="pA3cC1FDBmTtkMS_HFhs-10" value="" style="html=1;strokeColor=none;resizeWidth=1;resizeHeight=1;fillColor=none;part=1;connectable=0;allowArrows=0;deletable=0;whiteSpace=wrap;" vertex="1" parent="pA3cC1FDBmTtkMS_HFhs-9">
          <mxGeometry width="733.5248946533484" height="447.37" relative="1" as="geometry">
            <mxPoint y="30" as="offset" />
          </mxGeometry>
        </mxCell>
        <mxCell id="pA3cC1FDBmTtkMS_HFhs-38" value="domain" style="shape=folder;fontStyle=1;tabWidth=110;tabHeight=30;tabPosition=left;html=1;boundedLbl=1;labelInHeader=1;container=1;collapsible=0;whiteSpace=wrap;" vertex="1" parent="pA3cC1FDBmTtkMS_HFhs-9">
          <mxGeometry x="255.07250291214442" y="450.99109639440775" width="188.41758522153447" height="113.33561442236942" as="geometry" />
        </mxCell>
        <mxCell id="pA3cC1FDBmTtkMS_HFhs-39" value="" style="html=1;strokeColor=none;resizeWidth=1;resizeHeight=1;fillColor=none;part=1;connectable=0;allowArrows=0;deletable=0;whiteSpace=wrap;" vertex="1" parent="pA3cC1FDBmTtkMS_HFhs-38">
          <mxGeometry width="188.41758522153447" height="79.33493009565858" relative="1" as="geometry">
            <mxPoint y="30" as="offset" />
          </mxGeometry>
        </mxCell>
        <mxCell id="pA3cC1FDBmTtkMS_HFhs-11" value="facade" style="shape=folder;fontStyle=1;tabWidth=110;tabHeight=30;tabPosition=left;html=1;boundedLbl=1;labelInHeader=1;container=1;collapsible=0;whiteSpace=wrap;" vertex="1" parent="pA3cC1FDBmTtkMS_HFhs-9">
          <mxGeometry x="25.114679435422033" y="66.23523505845804" width="295.18371755001266" height="308.0805821273812" as="geometry" />
        </mxCell>
        <mxCell id="pA3cC1FDBmTtkMS_HFhs-12" value="" style="html=1;strokeColor=none;resizeWidth=1;resizeHeight=1;fillColor=none;part=1;connectable=0;allowArrows=0;deletable=0;whiteSpace=wrap;" vertex="1" parent="pA3cC1FDBmTtkMS_HFhs-11">
          <mxGeometry width="295.18371755001266" height="215.65640748916692" relative="1" as="geometry">
            <mxPoint y="30" as="offset" />
          </mxGeometry>
        </mxCell>
        <mxCell id="CnLqmu6Y1ZzkHEZmKvZY-9" style="edgeStyle=orthogonalEdgeStyle;rounded=0;orthogonalLoop=1;jettySize=auto;html=1;exitX=0;exitY=0;exitDx=55;exitDy=0;exitPerimeter=0;entryX=0.288;entryY=0.099;entryDx=0;entryDy=0;entryPerimeter=0;startArrow=none;startFill=0;dashed=1;endArrow=open;endFill=0;" edge="1" parent="pA3cC1FDBmTtkMS_HFhs-11" source="pA3cC1FDBmTtkMS_HFhs-17" target="pA3cC1FDBmTtkMS_HFhs-11">
          <mxGeometry relative="1" as="geometry" />
        </mxCell>
        <mxCell id="pA3cC1FDBmTtkMS_HFhs-17" value="&amp;lt;&amp;lt;domain&amp;gt;&amp;gt;" style="shape=folder;fontStyle=1;tabWidth=110;tabHeight=30;tabPosition=left;html=1;boundedLbl=1;labelInHeader=1;container=1;collapsible=0;whiteSpace=wrap;" vertex="1" parent="pA3cC1FDBmTtkMS_HFhs-11">
          <mxGeometry x="30.180079539129217" y="82.70324009956938" width="242.29994359000528" height="201.56929916996486" as="geometry" />
        </mxCell>
        <mxCell id="pA3cC1FDBmTtkMS_HFhs-18" value="" style="html=1;strokeColor=none;resizeWidth=1;resizeHeight=1;fillColor=none;part=1;connectable=0;allowArrows=0;deletable=0;whiteSpace=wrap;" vertex="1" parent="pA3cC1FDBmTtkMS_HFhs-17">
          <mxGeometry width="235.43744230469406" height="122.61298332329882" relative="1" as="geometry">
            <mxPoint y="30" as="offset" />
          </mxGeometry>
        </mxCell>
        <mxCell id="pA3cC1FDBmTtkMS_HFhs-124" style="edgeStyle=orthogonalEdgeStyle;rounded=0;orthogonalLoop=1;jettySize=auto;html=1;exitX=0;exitY=0;exitDx=55;exitDy=0;exitPerimeter=0;entryX=0.251;entryY=0.14;entryDx=0;entryDy=0;entryPerimeter=0;dashed=1;endArrow=open;endFill=0;" edge="1" parent="pA3cC1FDBmTtkMS_HFhs-17" source="pA3cC1FDBmTtkMS_HFhs-29" target="pA3cC1FDBmTtkMS_HFhs-17">
          <mxGeometry relative="1" as="geometry">
            <Array as="points">
              <mxPoint x="61" y="67" />
            </Array>
          </mxGeometry>
        </mxCell>
        <mxCell id="pA3cC1FDBmTtkMS_HFhs-29" value="implementation" style="shape=folder;fontStyle=1;tabWidth=110;tabHeight=30;tabPosition=left;html=1;boundedLbl=1;labelInHeader=1;container=1;collapsible=0;whiteSpace=wrap;" vertex="1" parent="pA3cC1FDBmTtkMS_HFhs-17">
          <mxGeometry x="19.191314687735552" y="67.40696661575014" width="200.15581653573796" height="115.4344303294721" as="geometry" />
        </mxCell>
        <mxCell id="pA3cC1FDBmTtkMS_HFhs-30" value="" style="html=1;strokeColor=none;resizeWidth=1;resizeHeight=1;fillColor=none;part=1;connectable=0;allowArrows=0;deletable=0;whiteSpace=wrap;" vertex="1" parent="pA3cC1FDBmTtkMS_HFhs-29">
          <mxGeometry width="200.15581653573796" height="80.80410123063044" relative="1" as="geometry">
            <mxPoint y="30" as="offset" />
          </mxGeometry>
        </mxCell>
        <mxCell id="pA3cC1FDBmTtkMS_HFhs-59" value="usecase" style="shape=folder;fontStyle=1;tabWidth=110;tabHeight=30;tabPosition=left;html=1;boundedLbl=1;labelInHeader=1;container=1;collapsible=0;whiteSpace=wrap;" vertex="1" parent="pA3cC1FDBmTtkMS_HFhs-9">
          <mxGeometry x="378.26419406038855" y="83.32179380263266" width="323.4685298376495" height="290.99402338320664" as="geometry" />
        </mxCell>
        <mxCell id="pA3cC1FDBmTtkMS_HFhs-60" value="" style="html=1;strokeColor=none;resizeWidth=1;resizeHeight=1;fillColor=none;part=1;connectable=0;allowArrows=0;deletable=0;whiteSpace=wrap;" vertex="1" parent="pA3cC1FDBmTtkMS_HFhs-59">
          <mxGeometry width="323.4685298376495" height="203.69581636824455" relative="1" as="geometry">
            <mxPoint y="30" as="offset" />
          </mxGeometry>
        </mxCell>
        <mxCell id="pA3cC1FDBmTtkMS_HFhs-129" style="edgeStyle=orthogonalEdgeStyle;rounded=0;orthogonalLoop=1;jettySize=auto;html=1;exitX=0;exitY=0;exitDx=55;exitDy=0;exitPerimeter=0;dashed=1;endArrow=open;endFill=0;" edge="1" parent="pA3cC1FDBmTtkMS_HFhs-59" source="pA3cC1FDBmTtkMS_HFhs-61">
          <mxGeometry relative="1" as="geometry">
            <mxPoint x="74.32292847870315" y="25.55432099292321" as="targetPoint" />
            <Array as="points">
              <mxPoint x="74.46572496834412" y="78.52081852572479" />
              <mxPoint x="74.46572496834412" y="61.37259379022168" />
              <mxPoint x="74.46572496834412" y="61.37259379022168" />
            </Array>
          </mxGeometry>
        </mxCell>
        <mxCell id="pA3cC1FDBmTtkMS_HFhs-61" value="&amp;lt;&amp;lt;domain&amp;gt;&amp;gt;" style="shape=folder;fontStyle=1;tabWidth=110;tabHeight=30;tabPosition=left;html=1;boundedLbl=1;labelInHeader=1;container=1;collapsible=0;whiteSpace=wrap;" vertex="1" parent="pA3cC1FDBmTtkMS_HFhs-59">
          <mxGeometry x="28.980464965051336" y="78.11640843190328" width="265.51737739235284" height="190.3899978082656" as="geometry" />
        </mxCell>
        <mxCell id="pA3cC1FDBmTtkMS_HFhs-62" value="" style="html=1;strokeColor=none;resizeWidth=1;resizeHeight=1;fillColor=none;part=1;connectable=0;allowArrows=0;deletable=0;whiteSpace=wrap;" vertex="1" parent="pA3cC1FDBmTtkMS_HFhs-61">
          <mxGeometry width="257.99730406245266" height="115.81270422785805" relative="1" as="geometry">
            <mxPoint y="30" as="offset" />
          </mxGeometry>
        </mxCell>
        <mxCell id="pA3cC1FDBmTtkMS_HFhs-128" style="edgeStyle=orthogonalEdgeStyle;rounded=0;orthogonalLoop=1;jettySize=auto;html=1;exitX=0;exitY=0;exitDx=55;exitDy=0;exitPerimeter=0;entryX=0.254;entryY=0.146;entryDx=0;entryDy=0;entryPerimeter=0;dashed=1;endArrow=open;endFill=0;" edge="1" parent="pA3cC1FDBmTtkMS_HFhs-61" source="pA3cC1FDBmTtkMS_HFhs-63" target="pA3cC1FDBmTtkMS_HFhs-61">
          <mxGeometry relative="1" as="geometry" />
        </mxCell>
        <mxCell id="pA3cC1FDBmTtkMS_HFhs-63" value="implementation" style="shape=folder;fontStyle=1;tabWidth=110;tabHeight=30;tabPosition=left;html=1;boundedLbl=1;labelInHeader=1;container=1;collapsible=0;whiteSpace=wrap;" vertex="1" parent="pA3cC1FDBmTtkMS_HFhs-61">
          <mxGeometry x="21.03024651636392" y="63.66848661518189" width="219.3349560424176" height="109.03228332849899" as="geometry" />
        </mxCell>
        <mxCell id="pA3cC1FDBmTtkMS_HFhs-64" value="" style="html=1;strokeColor=none;resizeWidth=1;resizeHeight=1;fillColor=none;part=1;connectable=0;allowArrows=0;deletable=0;whiteSpace=wrap;" vertex="1" parent="pA3cC1FDBmTtkMS_HFhs-63">
          <mxGeometry width="219.3349560424176" height="76.32259832994927" relative="1" as="geometry">
            <mxPoint y="30" as="offset" />
          </mxGeometry>
        </mxCell>
        <mxCell id="CnLqmu6Y1ZzkHEZmKvZY-11" style="edgeStyle=orthogonalEdgeStyle;rounded=0;orthogonalLoop=1;jettySize=auto;html=1;exitX=0;exitY=0;exitDx=200.15581653573796;exitDy=51.35860758236802;exitPerimeter=0;entryX=0;entryY=0;entryDx=0;entryDy=70.0974994520664;entryPerimeter=0;dashed=1;endArrow=open;endFill=0;" edge="1" parent="pA3cC1FDBmTtkMS_HFhs-9" source="pA3cC1FDBmTtkMS_HFhs-29" target="pA3cC1FDBmTtkMS_HFhs-61">
          <mxGeometry relative="1" as="geometry" />
        </mxCell>
        <mxCell id="CnLqmu6Y1ZzkHEZmKvZY-16" style="edgeStyle=orthogonalEdgeStyle;rounded=0;orthogonalLoop=1;jettySize=auto;html=1;exitX=0.25;exitY=1;exitDx=0;exitDy=0;exitPerimeter=0;entryX=0;entryY=0;entryDx=188.41758522153447;entryDy=50.833903605592354;entryPerimeter=0;dashed=1;endArrow=open;endFill=0;" edge="1" parent="pA3cC1FDBmTtkMS_HFhs-9" source="pA3cC1FDBmTtkMS_HFhs-63" target="pA3cC1FDBmTtkMS_HFhs-38">
          <mxGeometry relative="1" as="geometry" />
        </mxCell>
        <mxCell id="CnLqmu6Y1ZzkHEZmKvZY-17" style="edgeStyle=orthogonalEdgeStyle;rounded=0;orthogonalLoop=1;jettySize=auto;html=1;exitX=0.5;exitY=1;exitDx=0;exitDy=0;exitPerimeter=0;entryX=0;entryY=0;entryDx=188.41758522153447;entryDy=92.50171081677706;entryPerimeter=0;dashed=1;endArrow=open;endFill=0;" edge="1" parent="pA3cC1FDBmTtkMS_HFhs-9" source="pA3cC1FDBmTtkMS_HFhs-61" target="pA3cC1FDBmTtkMS_HFhs-38">
          <mxGeometry relative="1" as="geometry" />
        </mxCell>
        <mxCell id="CnLqmu6Y1ZzkHEZmKvZY-18" style="edgeStyle=orthogonalEdgeStyle;rounded=0;orthogonalLoop=1;jettySize=auto;html=1;exitX=0.5;exitY=1;exitDx=0;exitDy=0;exitPerimeter=0;entryX=0;entryY=0;entryDx=0;entryDy=50.833903605592354;entryPerimeter=0;dashed=1;endArrow=open;endFill=0;" edge="1" parent="pA3cC1FDBmTtkMS_HFhs-9" source="pA3cC1FDBmTtkMS_HFhs-29" target="pA3cC1FDBmTtkMS_HFhs-38">
          <mxGeometry relative="1" as="geometry" />
        </mxCell>
        <mxCell id="CnLqmu6Y1ZzkHEZmKvZY-26" style="edgeStyle=orthogonalEdgeStyle;rounded=0;orthogonalLoop=1;jettySize=auto;html=1;exitX=0;exitY=0;exitDx=239.77;exitDy=93.5175;exitPerimeter=0;entryX=0;entryY=0;entryDx=519.59;entryDy=30;entryPerimeter=0;dashed=1;endArrow=open;endFill=0;" edge="1" parent="pA3cC1FDBmTtkMS_HFhs-3" source="pA3cC1FDBmTtkMS_HFhs-56" target="Lod6vtD8BS9e7FjF0TmM-1">
          <mxGeometry relative="1" as="geometry">
            <Array as="points">
              <mxPoint x="1576" y="1276" />
              <mxPoint x="1576" y="91" />
            </Array>
          </mxGeometry>
        </mxCell>
        <mxCell id="pA3cC1FDBmTtkMS_HFhs-56" value="entity" style="shape=folder;fontStyle=1;tabWidth=110;tabHeight=30;tabPosition=left;html=1;boundedLbl=1;labelInHeader=1;container=1;collapsible=0;whiteSpace=wrap;" vertex="1" parent="pA3cC1FDBmTtkMS_HFhs-3">
          <mxGeometry x="1166.36" y="1182.56" width="239.77" height="114.69" as="geometry" />
        </mxCell>
        <mxCell id="pA3cC1FDBmTtkMS_HFhs-57" value="" style="html=1;strokeColor=none;resizeWidth=1;resizeHeight=1;fillColor=none;part=1;connectable=0;allowArrows=0;deletable=0;whiteSpace=wrap;" vertex="1" parent="pA3cC1FDBmTtkMS_HFhs-56">
          <mxGeometry width="239.77" height="80.28300000000002" relative="1" as="geometry">
            <mxPoint y="30" as="offset" />
          </mxGeometry>
        </mxCell>
        <mxCell id="CnLqmu6Y1ZzkHEZmKvZY-24" style="edgeStyle=orthogonalEdgeStyle;rounded=0;orthogonalLoop=1;jettySize=auto;html=1;exitX=0;exitY=0;exitDx=55;exitDy=0;exitPerimeter=0;entryX=0;entryY=0;entryDx=0;entryDy=119.775;entryPerimeter=0;dashed=1;endArrow=open;endFill=0;" edge="1" parent="pA3cC1FDBmTtkMS_HFhs-3" source="pA3cC1FDBmTtkMS_HFhs-65" target="Lod6vtD8BS9e7FjF0TmM-1">
          <mxGeometry relative="1" as="geometry" />
        </mxCell>
        <mxCell id="pA3cC1FDBmTtkMS_HFhs-65" value="api" style="shape=folder;fontStyle=1;tabWidth=110;tabHeight=30;tabPosition=left;html=1;boundedLbl=1;labelInHeader=1;container=1;collapsible=0;whiteSpace=wrap;" vertex="1" parent="pA3cC1FDBmTtkMS_HFhs-3">
          <mxGeometry x="66.36080291970804" y="532.566875" width="258.01489051094893" height="393.50062500000007" as="geometry" />
        </mxCell>
        <mxCell id="pA3cC1FDBmTtkMS_HFhs-66" value="" style="html=1;strokeColor=none;resizeWidth=1;resizeHeight=1;fillColor=none;part=1;connectable=0;allowArrows=0;deletable=0;whiteSpace=wrap;" vertex="1" parent="pA3cC1FDBmTtkMS_HFhs-65">
          <mxGeometry width="258.01489051094893" height="275.4504375" relative="1" as="geometry">
            <mxPoint y="30" as="offset" />
          </mxGeometry>
        </mxCell>
        <mxCell id="pA3cC1FDBmTtkMS_HFhs-77" value="init" style="shape=folder;fontStyle=1;tabWidth=110;tabHeight=30;tabPosition=left;html=1;boundedLbl=1;labelInHeader=1;container=1;collapsible=0;whiteSpace=wrap;" vertex="1" parent="pA3cC1FDBmTtkMS_HFhs-65">
          <mxGeometry x="48.377791970802924" y="74.58612798855238" width="161.25930656934307" height="87.874232030696" as="geometry" />
        </mxCell>
        <mxCell id="pA3cC1FDBmTtkMS_HFhs-78" value="" style="html=1;strokeColor=none;resizeWidth=1;resizeHeight=1;fillColor=none;part=1;connectable=0;allowArrows=0;deletable=0;whiteSpace=wrap;" vertex="1" parent="pA3cC1FDBmTtkMS_HFhs-77">
          <mxGeometry width="161.25930656934307" height="61.5119624214872" relative="1" as="geometry">
            <mxPoint y="30" as="offset" />
          </mxGeometry>
        </mxCell>
        <mxCell id="pA3cC1FDBmTtkMS_HFhs-79" value="controller" style="shape=folder;fontStyle=1;tabWidth=110;tabHeight=30;tabPosition=left;html=1;boundedLbl=1;labelInHeader=1;container=1;collapsible=0;whiteSpace=wrap;" vertex="1" parent="pA3cC1FDBmTtkMS_HFhs-65">
          <mxGeometry x="21.501240875912416" y="194.17906436784534" width="215.01240875912407" height="177.88784881217714" as="geometry" />
        </mxCell>
        <mxCell id="pA3cC1FDBmTtkMS_HFhs-80" value="" style="html=1;strokeColor=none;resizeWidth=1;resizeHeight=1;fillColor=none;part=1;connectable=0;allowArrows=0;deletable=0;whiteSpace=wrap;" vertex="1" parent="pA3cC1FDBmTtkMS_HFhs-79">
          <mxGeometry width="215.01240875912407" height="124.52149416852401" relative="1" as="geometry">
            <mxPoint y="30" as="offset" />
          </mxGeometry>
        </mxCell>
        <mxCell id="pA3cC1FDBmTtkMS_HFhs-109" value="&amp;lt;&amp;lt;domain&amp;gt;&amp;gt;" style="shape=folder;fontStyle=1;tabWidth=110;tabHeight=30;tabPosition=left;html=1;boundedLbl=1;labelInHeader=1;container=1;collapsible=0;whiteSpace=wrap;" vertex="1" parent="pA3cC1FDBmTtkMS_HFhs-79">
          <mxGeometry x="26.87655109489051" y="66.66641797943467" width="161.259306569343" height="84.87112051717158" as="geometry" />
        </mxCell>
        <mxCell id="pA3cC1FDBmTtkMS_HFhs-110" value="" style="html=1;strokeColor=none;resizeWidth=1;resizeHeight=1;fillColor=none;part=1;connectable=0;allowArrows=0;deletable=0;whiteSpace=wrap;" vertex="1" parent="pA3cC1FDBmTtkMS_HFhs-109">
          <mxGeometry width="161.259306569343" height="59.40978436202007" relative="1" as="geometry">
            <mxPoint y="30" as="offset" />
          </mxGeometry>
        </mxCell>
        <mxCell id="Lod6vtD8BS9e7FjF0TmM-1" value="crosscutting" style="shape=folder;fontStyle=1;tabWidth=110;tabHeight=30;tabPosition=left;html=1;boundedLbl=1;labelInHeader=1;container=1;collapsible=0;whiteSpace=wrap;" vertex="1" parent="pA3cC1FDBmTtkMS_HFhs-3">
          <mxGeometry x="660.41" y="60.9" width="519.59" height="389.1" as="geometry" />
        </mxCell>
        <mxCell id="Lod6vtD8BS9e7FjF0TmM-2" value="" style="html=1;strokeColor=none;resizeWidth=1;resizeHeight=1;fillColor=none;part=1;connectable=0;allowArrows=0;deletable=0;whiteSpace=wrap;" vertex="1" parent="Lod6vtD8BS9e7FjF0TmM-1">
          <mxGeometry width="519.5899999999999" height="272.37000000000006" relative="1" as="geometry">
            <mxPoint y="30" as="offset" />
          </mxGeometry>
        </mxCell>
        <mxCell id="Lod6vtD8BS9e7FjF0TmM-9" value="exception" style="shape=folder;fontStyle=1;tabWidth=110;tabHeight=30;tabPosition=left;html=1;boundedLbl=1;labelInHeader=1;container=1;collapsible=0;whiteSpace=wrap;" vertex="1" parent="Lod6vtD8BS9e7FjF0TmM-1">
          <mxGeometry x="13.556533233019392" y="48.468851708697436" width="183.0131986457618" height="319.18362648622605" as="geometry" />
        </mxCell>
        <mxCell id="Lod6vtD8BS9e7FjF0TmM-10" value="" style="html=1;strokeColor=none;resizeWidth=1;resizeHeight=1;fillColor=none;part=1;connectable=0;allowArrows=0;deletable=0;whiteSpace=wrap;" vertex="1" parent="Lod6vtD8BS9e7FjF0TmM-9">
          <mxGeometry width="183.0131986457618" height="223.42853854035826" relative="1" as="geometry">
            <mxPoint y="30" as="offset" />
          </mxGeometry>
        </mxCell>
        <mxCell id="jSg_M5TN_3HwbyroikT1-1" value="data" style="shape=folder;fontStyle=1;tabWidth=110;tabHeight=30;tabPosition=left;html=1;boundedLbl=1;labelInHeader=1;container=1;collapsible=0;whiteSpace=wrap;" vertex="1" parent="Lod6vtD8BS9e7FjF0TmM-9">
          <mxGeometry x="12.838036971669364" y="49.948215251910334" width="149.84036182456333" height="63.848980379851724" as="geometry" />
        </mxCell>
        <mxCell id="jSg_M5TN_3HwbyroikT1-2" value="" style="html=1;strokeColor=none;resizeWidth=1;resizeHeight=1;fillColor=none;part=1;connectable=0;allowArrows=0;deletable=0;whiteSpace=wrap;" vertex="1" parent="jSg_M5TN_3HwbyroikT1-1">
          <mxGeometry width="149.84036182456333" height="44.69428626589622" relative="1" as="geometry">
            <mxPoint y="30" as="offset" />
          </mxGeometry>
        </mxCell>
        <mxCell id="jSg_M5TN_3HwbyroikT1-3" value="service" style="shape=folder;fontStyle=1;tabWidth=110;tabHeight=30;tabPosition=left;html=1;boundedLbl=1;labelInHeader=1;container=1;collapsible=0;whiteSpace=wrap;" vertex="1" parent="Lod6vtD8BS9e7FjF0TmM-9">
          <mxGeometry x="12.838036971669364" y="224.09293909023907" width="149.84036182456333" height="84.3412292240021" as="geometry" />
        </mxCell>
        <mxCell id="jSg_M5TN_3HwbyroikT1-4" value="" style="html=1;strokeColor=none;resizeWidth=1;resizeHeight=1;fillColor=none;part=1;connectable=0;allowArrows=0;deletable=0;whiteSpace=wrap;" vertex="1" parent="jSg_M5TN_3HwbyroikT1-3">
          <mxGeometry width="147.25911982421601" height="49.9424229434146" relative="1" as="geometry">
            <mxPoint y="30" as="offset" />
          </mxGeometry>
        </mxCell>
        <mxCell id="jSg_M5TN_3HwbyroikT1-5" value="enumeration" style="shape=folder;fontStyle=1;tabWidth=110;tabHeight=30;tabPosition=left;html=1;boundedLbl=1;labelInHeader=1;container=1;collapsible=0;whiteSpace=wrap;" vertex="1" parent="Lod6vtD8BS9e7FjF0TmM-9">
          <mxGeometry x="12.838036971669364" y="131.30445649818697" width="149.84036182456333" height="78.88771746411071" as="geometry" />
        </mxCell>
        <mxCell id="jSg_M5TN_3HwbyroikT1-6" value="" style="html=1;strokeColor=none;resizeWidth=1;resizeHeight=1;fillColor=none;part=1;connectable=0;allowArrows=0;deletable=0;whiteSpace=wrap;" vertex="1" parent="jSg_M5TN_3HwbyroikT1-5">
          <mxGeometry width="149.84036182456333" height="55.2214022248775" relative="1" as="geometry">
            <mxPoint y="30" as="offset" />
          </mxGeometry>
        </mxCell>
        <mxCell id="Lod6vtD8BS9e7FjF0TmM-11" value="helper" style="shape=folder;fontStyle=1;tabWidth=110;tabHeight=30;tabPosition=left;html=1;boundedLbl=1;labelInHeader=1;container=1;collapsible=0;whiteSpace=wrap;" vertex="1" parent="Lod6vtD8BS9e7FjF0TmM-1">
          <mxGeometry x="223.68349500000002" y="48.46899212598425" width="270.7650533870966" height="91.58950056242969" as="geometry" />
        </mxCell>
        <mxCell id="Lod6vtD8BS9e7FjF0TmM-12" value="" style="html=1;strokeColor=none;resizeWidth=1;resizeHeight=1;fillColor=none;part=1;connectable=0;allowArrows=0;deletable=0;whiteSpace=wrap;" vertex="1" parent="Lod6vtD8BS9e7FjF0TmM-11">
          <mxGeometry width="270.7650533870966" height="64.11265039370079" relative="1" as="geometry">
            <mxPoint y="30" as="offset" />
          </mxGeometry>
        </mxCell>
        <mxCell id="Lod6vtD8BS9e7FjF0TmM-13" value="messages" style="shape=folder;fontStyle=1;tabWidth=110;tabHeight=30;tabPosition=left;html=1;boundedLbl=1;labelInHeader=1;container=1;collapsible=0;whiteSpace=wrap;" vertex="1" parent="Lod6vtD8BS9e7FjF0TmM-1">
          <mxGeometry x="223.68349500000002" y="154.61582227221598" width="262.38456951612886" height="213.03772103487074" as="geometry" />
        </mxCell>
        <mxCell id="Lod6vtD8BS9e7FjF0TmM-14" value="" style="html=1;strokeColor=none;resizeWidth=1;resizeHeight=1;fillColor=none;part=1;connectable=0;allowArrows=0;deletable=0;whiteSpace=wrap;" vertex="1" parent="Lod6vtD8BS9e7FjF0TmM-13">
          <mxGeometry width="262.38456951612886" height="149.12640472440953" relative="1" as="geometry">
            <mxPoint y="30" as="offset" />
          </mxGeometry>
        </mxCell>
        <mxCell id="CnLqmu6Y1ZzkHEZmKvZY-1" value="enumeration" style="shape=folder;fontStyle=1;tabWidth=110;tabHeight=30;tabPosition=left;html=1;boundedLbl=1;labelInHeader=1;container=1;collapsible=0;whiteSpace=wrap;" vertex="1" parent="Lod6vtD8BS9e7FjF0TmM-13">
          <mxGeometry x="16.399035594758054" y="61.534024217926984" width="215.71039128489437" height="89.97965702611683" as="geometry" />
        </mxCell>
        <mxCell id="CnLqmu6Y1ZzkHEZmKvZY-2" value="" style="html=1;strokeColor=none;resizeWidth=1;resizeHeight=1;fillColor=none;part=1;connectable=0;allowArrows=0;deletable=0;whiteSpace=wrap;" vertex="1" parent="CnLqmu6Y1ZzkHEZmKvZY-1">
          <mxGeometry width="215.71039128489448" height="62.98575991828176" relative="1" as="geometry">
            <mxPoint y="30" as="offset" />
          </mxGeometry>
        </mxCell>
        <mxCell id="CnLqmu6Y1ZzkHEZmKvZY-25" style="edgeStyle=orthogonalEdgeStyle;rounded=0;orthogonalLoop=1;jettySize=auto;html=1;exitX=0;exitY=0;exitDx=0;exitDy=87.255;exitPerimeter=0;entryX=0;entryY=0;entryDx=0;entryDy=30;entryPerimeter=0;dashed=1;endArrow=open;endFill=0;" edge="1" parent="pA3cC1FDBmTtkMS_HFhs-3" source="pA3cC1FDBmTtkMS_HFhs-119" target="Lod6vtD8BS9e7FjF0TmM-1">
          <mxGeometry relative="1" as="geometry">
            <Array as="points">
              <mxPoint x="36" y="1240" />
              <mxPoint x="36" y="91" />
            </Array>
          </mxGeometry>
        </mxCell>
        <mxCell id="pA3cC1FDBmTtkMS_HFhs-119" value="dto" style="shape=folder;fontStyle=1;tabWidth=110;tabHeight=30;tabPosition=left;html=1;boundedLbl=1;labelInHeader=1;container=1;collapsible=0;whiteSpace=wrap;" vertex="1" parent="pA3cC1FDBmTtkMS_HFhs-3">
          <mxGeometry x="216.36" y="1152.5600000000002" width="252.61" height="106.34" as="geometry" />
        </mxCell>
        <mxCell id="pA3cC1FDBmTtkMS_HFhs-120" value="" style="html=1;strokeColor=none;resizeWidth=1;resizeHeight=1;fillColor=none;part=1;connectable=0;allowArrows=0;deletable=0;whiteSpace=wrap;" vertex="1" parent="pA3cC1FDBmTtkMS_HFhs-119">
          <mxGeometry width="252.61" height="74.43799999999999" relative="1" as="geometry">
            <mxPoint y="30" as="offset" />
          </mxGeometry>
        </mxCell>
        <mxCell id="CnLqmu6Y1ZzkHEZmKvZY-12" style="edgeStyle=orthogonalEdgeStyle;rounded=0;orthogonalLoop=1;jettySize=auto;html=1;exitX=0;exitY=0;exitDx=219.33495604241756;exitDy=49.758070832124744;exitPerimeter=0;entryX=0;entryY=0;entryDx=0;entryDy=196.119375;entryPerimeter=0;dashed=1;endArrow=open;endFill=0;" edge="1" parent="pA3cC1FDBmTtkMS_HFhs-3" source="pA3cC1FDBmTtkMS_HFhs-63" target="pA3cC1FDBmTtkMS_HFhs-7">
          <mxGeometry relative="1" as="geometry">
            <Array as="points">
              <mxPoint x="1205" y="732" />
              <mxPoint x="1304" y="732" />
            </Array>
          </mxGeometry>
        </mxCell>
        <mxCell id="CnLqmu6Y1ZzkHEZmKvZY-13" style="edgeStyle=orthogonalEdgeStyle;rounded=0;orthogonalLoop=1;jettySize=auto;html=1;exitX=0.75;exitY=1;exitDx=0;exitDy=0;exitPerimeter=0;entryX=0;entryY=0;entryDx=0;entryDy=96.06437500000001;entryPerimeter=0;dashed=1;endArrow=open;endFill=0;" edge="1" parent="pA3cC1FDBmTtkMS_HFhs-3" source="pA3cC1FDBmTtkMS_HFhs-63" target="pA3cC1FDBmTtkMS_HFhs-56">
          <mxGeometry relative="1" as="geometry" />
        </mxCell>
        <mxCell id="CnLqmu6Y1ZzkHEZmKvZY-19" style="edgeStyle=orthogonalEdgeStyle;rounded=0;orthogonalLoop=1;jettySize=auto;html=1;exitX=0;exitY=0;exitDx=161.259306569343;exitDy=43.71778012929289;exitPerimeter=0;entryX=0;entryY=0;entryDx=0;entryDy=72.89232479249122;entryPerimeter=0;dashed=1;endArrow=open;endFill=0;" edge="1" parent="pA3cC1FDBmTtkMS_HFhs-3" source="pA3cC1FDBmTtkMS_HFhs-109" target="pA3cC1FDBmTtkMS_HFhs-17">
          <mxGeometry relative="1" as="geometry" />
        </mxCell>
        <mxCell id="CnLqmu6Y1ZzkHEZmKvZY-20" style="edgeStyle=orthogonalEdgeStyle;rounded=0;orthogonalLoop=1;jettySize=auto;html=1;exitX=0.25;exitY=1;exitDx=0;exitDy=0;exitPerimeter=0;entryX=0;entryY=0;entryDx=0;entryDy=49.085;entryPerimeter=0;dashed=1;endArrow=open;endFill=0;" edge="1" parent="pA3cC1FDBmTtkMS_HFhs-3" source="pA3cC1FDBmTtkMS_HFhs-109" target="pA3cC1FDBmTtkMS_HFhs-119">
          <mxGeometry relative="1" as="geometry" />
        </mxCell>
        <mxCell id="CnLqmu6Y1ZzkHEZmKvZY-27" style="edgeStyle=orthogonalEdgeStyle;rounded=0;orthogonalLoop=1;jettySize=auto;html=1;exitX=0.25;exitY=1;exitDx=0;exitDy=0;exitPerimeter=0;entryX=0;entryY=0;entryDx=252.61;entryDy=87.255;entryPerimeter=0;dashed=1;endArrow=open;endFill=0;" edge="1" parent="pA3cC1FDBmTtkMS_HFhs-3" source="pA3cC1FDBmTtkMS_HFhs-29" target="pA3cC1FDBmTtkMS_HFhs-119">
          <mxGeometry relative="1" as="geometry" />
        </mxCell>
        <mxCell id="CnLqmu6Y1ZzkHEZmKvZY-28" style="edgeStyle=orthogonalEdgeStyle;rounded=0;orthogonalLoop=1;jettySize=auto;html=1;exitX=0.25;exitY=1;exitDx=0;exitDy=0;exitPerimeter=0;entryX=0;entryY=0;entryDx=252.61;entryDy=68.17;entryPerimeter=0;dashed=1;endArrow=open;endFill=0;" edge="1" parent="pA3cC1FDBmTtkMS_HFhs-3" source="pA3cC1FDBmTtkMS_HFhs-17" target="pA3cC1FDBmTtkMS_HFhs-119">
          <mxGeometry relative="1" as="geometry" />
        </mxCell>
      </root>
    </mxGraphModel>
  </diagram>
</mxfile>
